<svg width="100" height="100" viewBox="0 0 100 100" fill="none" xmlns="http://www.w3.org/2000/svg">
<path d="M100 0H0V100H100V0Z" fill="#E8011E"/>
<path d="M65.4404 31.7104H70.3139C72.4941 31.7104 74.4179 30.6844 75.7004 29.1454V42.6117C75.7004 45.0484 74.1614 47.2287 71.7247 47.9982H72.2377C73.1354 48.3829 74.1614 48.3829 75.0592 47.9982H75.7004V60.0537C75.7004 63.2599 73.1354 65.8249 69.9291 65.8249H65.4404V72.1092H65.1839C63.2602 72.1092 61.3364 73.0069 60.0539 74.4177V37.2252C59.9256 34.1472 62.3624 31.7104 65.4404 31.7104ZM65.4404 47.2287V63.5164H67.7489C69.2879 63.5164 70.5704 62.2339 70.5704 60.6949V49.5372H68.0054C68.0054 49.5372 66.7229 49.6654 65.9534 50.9479C65.9534 50.9479 66.8511 47.2287 69.4161 47.2287H70.5704V34.0189H68.2619C66.7229 34.0189 65.4404 35.3014 65.4404 36.8404V47.2287ZM51.9742 67.8769H28.7609C26.4524 68.0052 24.6569 69.6724 24.4004 71.8527V39.5337C24.4004 36.3274 26.9654 33.7624 30.1716 33.7624H38.2514V27.3499H39.1491C41.3294 27.3499 43.2532 26.3239 44.5357 24.6567V33.6342H53.1284C55.6934 33.6342 57.7454 31.5822 57.7454 29.0172V61.9774C57.6171 65.3119 55.0522 67.8769 51.9742 67.8769ZM51.3329 36.0709H44.4074V49.5372H48.7679C49.5374 49.5372 50.8199 48.1264 50.8199 48.1264C50.8199 48.1264 50.0504 51.8457 47.3571 51.8457H44.5357V63.0034C44.5357 63.2599 44.2791 63.5164 44.0226 63.5164H38.8926C38.6361 63.5164 38.3797 63.2599 38.3797 63.0034V51.8457H33.2496C32.4801 51.8457 31.1976 53.2564 31.1976 53.2564C31.1976 53.2564 31.9672 49.5372 34.6604 49.5372H38.1232V36.0709H33.6344C32.0954 36.0709 30.8129 37.3534 30.8129 38.8924V65.5684H48.6396C50.1786 65.5684 51.4611 64.2859 51.4611 62.7469L51.3329 36.0709Z" fill="white"/>
</svg>
